<?xml version="1.0" encoding="UTF-8"?>
<svg width="84px" height="85px" viewBox="0 0 84 85" version="1.1" xmlns="http://www.w3.org/2000/svg" xmlns:xlink="http://www.w3.org/1999/xlink">
    <!-- Generator: Sketch 53 (72520) - https://sketchapp.com -->
    <title>Group 6</title>
    <desc>Created with Sketch.</desc>
    <defs>
        <linearGradient x1="20.0955053%" y1="24.7501044%" x2="85.1575332%" y2="84.6251641%" id="linearGradient-1">
            <stop stop-color="#F5C840" offset="0%"></stop>
            <stop stop-color="#FDB857" offset="100%"></stop>
        </linearGradient>
        <circle id="path-2" cx="15" cy="15" r="15"></circle>
        <filter x="-6.7%" y="-3.3%" width="113.3%" height="113.3%" filterUnits="objectBoundingBox" id="filter-3">
            <feOffset dx="0" dy="1" in="SourceAlpha" result="shadowOffsetOuter1"></feOffset>
            <feGaussianBlur stdDeviation="0.5" in="shadowOffsetOuter1" result="shadowBlurOuter1"></feGaussianBlur>
            <feColorMatrix values="0 0 0 0 0   0 0 0 0 0   0 0 0 0 0  0 0 0 0.2 0" type="matrix" in="shadowBlurOuter1"></feColorMatrix>
        </filter>
        <filter x="-23.2%" y="-20.3%" width="146.4%" height="140.6%" filterUnits="objectBoundingBox" id="filter-4">
            <feOffset dx="0" dy="1" in="SourceAlpha" result="shadowOffsetOuter1"></feOffset>
            <feGaussianBlur stdDeviation="1" in="shadowOffsetOuter1" result="shadowBlurOuter1"></feGaussianBlur>
            <feColorMatrix values="0 0 0 0 0.509907156   0 0 0 0 0.408663159   0 0 0 0 0.27709684  0 0 0 0.5 0" type="matrix" in="shadowBlurOuter1" result="shadowMatrixOuter1"></feColorMatrix>
            <feMerge>
                <feMergeNode in="shadowMatrixOuter1"></feMergeNode>
                <feMergeNode in="SourceGraphic"></feMergeNode>
            </feMerge>
        </filter>
    </defs>
    <g id="Screens" stroke="none" stroke-width="1" fill="none" fill-rule="evenodd">
        <g id="Registration_1.2" transform="translate(-167.000000, -95.000000)">
            <g id="Group-6" transform="translate(167.000000, 95.000000)">
                <g id="Group-7-Copy-2" fill="url(#linearGradient-1)">
                    <g id="Group-7-Copy">
                        <circle id="Oval-Copy" cx="40" cy="40" r="40"></circle>
                    </g>
                </g>
                <g id="avatar" filter="url(#filter-4)" transform="translate(26.000000, 24.000000)" fill="#FFFFFF" fill-rule="nonzero">
                    <g id="Group-7">
                        <path d="M13.0923931,17.6 C13.1250012,17.6 13.1576094,17.6 13.1967392,17.6 C13.2097824,17.6 13.2228257,17.6 13.235869,17.6 C13.2554339,17.6 13.2815204,17.6 13.3010853,17.6 C15.2119236,17.5661799 16.7575505,16.869485 17.8988362,15.5369716 C20.4096647,12.6013836 19.9922802,7.56894696 19.9466288,7.088701 C19.783588,3.48347425 18.1401366,1.75864719 16.783637,0.953727902 C15.772784,0.351729439 14.5923685,0.0270561107 13.2749988,1.81188398e-13 L13.2293473,1.81188398e-13 C13.2228257,1.81188398e-13 13.2097824,1.81188398e-13 13.2032608,1.81188398e-13 L13.164131,1.81188398e-13 C12.4402298,1.81188398e-13 11.0185139,0.121752498 9.65549276,0.926671791 C8.28594994,1.73159108 6.61641203,3.45641814 6.45337122,7.088701 C6.40771979,7.56894696 5.99033531,12.6013836 8.50116381,15.5369716 C9.63592786,16.869485 11.1815548,17.5661799 13.0923931,17.6 Z M8.19464708,7.25780169 C8.19464708,7.23750961 8.20116872,7.21721752 8.20116872,7.20368947 C8.41638259,2.35388163 11.7358935,1.8330515 13.1576094,1.8330515 L13.1836959,1.8330515 C13.1967392,1.8330515 13.2163041,1.8330515 13.235869,1.8330515 C14.9967097,1.87363566 17.990139,2.61767871 18.1923097,7.20368947 C18.1923097,7.22398155 18.1923097,7.24427364 18.1988313,7.25780169 C18.2053529,7.30514988 18.6618672,11.9046887 16.5879881,14.3262106 C15.7662624,15.2867025 14.6706281,15.7601845 13.2293473,15.7737125 C13.2163041,15.7737125 13.2097824,15.7737125 13.1967392,15.7737125 L13.1967392,15.7737125 C13.1836959,15.7737125 13.1771743,15.7737125 13.164131,15.7737125 C11.7293719,15.7601845 10.627216,15.2867025 9.81201193,14.3262106 C7.74465444,11.9182168 8.18812545,7.29838586 8.19464708,7.25780169 Z" id="Shape"></path>
                        <path d="M27.1981455,25.6066069 C27.1981455,25.6001684 27.1981455,25.5937299 27.1981455,25.5872915 C27.1981455,25.5357838 27.1915235,25.4842761 27.1915235,25.4263299 C27.1517918,24.1515144 27.0657065,21.1705063 24.1917808,20.2176138 C24.1719149,20.2111754 24.1454271,20.2047369 24.1255613,20.1982985 C21.1390624,19.4578753 18.6558317,17.7838751 18.6293439,17.7645597 C18.225405,17.4877058 17.6691613,17.5842827 17.3844175,17.9770289 C17.0996738,18.3697751 17.199003,18.910606 17.6029419,19.1874599 C17.715515,19.2647214 20.3510506,21.0481755 23.648781,21.8722987 C25.191695,22.4066911 25.3638657,24.0098682 25.4102193,25.4778376 C25.4102193,25.5357838 25.4102193,25.5872915 25.4168413,25.6387992 C25.4234632,26.2182608 25.3837315,27.1132071 25.2777804,27.628284 C24.2050247,28.2206226 20.0000873,30.2680536 13.6032848,30.2680536 C7.23297022,30.2680536 3.00154502,28.2141841 1.92216738,27.6218456 C1.8162162,27.1067686 1.76986256,26.2118223 1.78310646,25.6323607 C1.78310646,25.580853 1.78972841,25.5293453 1.78972841,25.4713991 C1.83608205,24.0034297 2.00825272,22.4002526 3.55116676,21.8658602 C6.8488972,21.041737 9.48443277,19.2518445 9.5970059,19.1810214 C10.0009448,18.9041675 10.100274,18.3633367 9.81553021,17.9705905 C9.53078641,17.5778443 8.97454272,17.4812673 8.57060385,17.7581212 C8.54411606,17.7774366 6.0741292,19.4514368 3.07438645,20.19186 C3.04789866,20.1982985 3.02803281,20.2047369 3.00816697,20.2111754 C0.13424124,21.1705063 0.0481559069,24.1515144 0.00842421483,25.4198914 C0.00842421483,25.4778376 0.00842421483,25.5293453 0.00180226615,25.580853 C0.00180226615,25.5872915 0.00180226615,25.5937299 0.00180226615,25.6001684 C-0.00481968253,25.9349684 -0.0114416312,27.6540379 0.339521649,28.5167919 C0.405741135,28.6841919 0.524936212,28.825838 0.68386298,28.922415 C0.88252144,29.0511842 5.64370254,32 13.6099068,32 C21.5761111,32 26.3372922,29.0447458 26.5359506,28.922415 C26.6882554,28.825838 26.8140725,28.6841919 26.8802919,28.5167919 C27.2113894,27.6604764 27.2047674,25.9414069 27.1981455,25.6066069 Z" id="Path"></path>
                    </g>
                </g>
            </g>
        </g>
    </g>
</svg>